# xmcd
#
# Track frame offsets: 
#        150
#        3927
#        20446
#        36791
#        58496
#        70200
#        88590
#        91835
#        102038
#        105751
#        124379
#        140362
#        160495
#        163546
#        175865
#        201293
#        216864
#
# Disc length: 3535 seconds
#
# Revision: 2
# Processed by: cddbd v1.5.2PL0 Copyright (c) Steve Scherf et al.
# Submitted via: ExactAudioCopyFreeDBPlugin 1.0
#
DISCID=e10dcd11
DTITLE=Team Avantgarde - Absolut
DYEAR=2007
DGENRE=Hip-Hop
TTITLE0=Intro
TTITLE1=Absolut
TTITLE2=Ein bisschen Koks
TTITLE3=Viel zu jung
TTITLE4=Mein Hirn ist müde
TTITLE5=Swing wie Al Caiola 2
TTITLE6=Arrangement Interlude
TTITLE7=130 Bpm feat. Gris
TTITLE8=Nesin Interlude
TTITLE9=Danke!
TTITLE10=Einige Jahre feat. Justus
TTITLE11=Liebe
TTITLE12=Nesin Interlude 2
TTITLE13=Mein Sound
TTITLE14=Scheine feat. Amewu, Justus, Gris
TTITLE15=Herzinfarkt feat. Boba Fettt
TTITLE16=Allein in der Bar
EXTD=
EXTT0=
EXTT1=
EXTT2=
EXTT3=
EXTT4=
EXTT5=
EXTT6=
EXTT7=
EXTT8=
EXTT9=
EXTT10=
EXTT11=
EXTT12=
EXTT13=
EXTT14=
EXTT15=
EXTT16=
PLAYORDER=
